# xmcd
#
# Track frame offsets:
#	150
#	23590
#	64433
#
# Disc length: 1164 seconds
#
# Revision: 1
# Processed by: cddbd v1.5.1PL0 Copyright (c) Steve Scherf et al.
# Submitted via: CDex 1.50Beta5
#
DISCID=20048a03
DTITLE=染谷俊 - Rock Yoou
DYEAR=1900
DGENRE=Rock
TTITLE0=Rock You
TTITLE1=Real Life
TTITLE2=Rock You〜凱旋'01 Mix〜
EXTD=
EXTT0=
EXTT1=
EXTT2=
PLAYORDER=
